<?xml version="1.0" standalone="no"?><!DOCTYPE svg PUBLIC "-//W3C//DTD SVG 1.1//EN" "http://www.w3.org/Graphics/SVG/1.1/DTD/svg11.dtd"><svg class="icon" width="200px" height="200.00px" viewBox="0 0 1024 1024" version="1.1" xmlns="http://www.w3.org/2000/svg"><path fill="currentColor" d="M635.2 776.768c-5.12 17.536-8.96 36.544-15.36 52.672 0-8.768 6.4-16.832 8.96-24.896a40.64 40.64 0 0 0 0-8.768c1.28-5.824 4.48-12.096 6.4-19.008z m0 0v-11.328c1.92 3.648 0.64 7.68 0 11.328zM502.016 469.248a202.112 202.112 0 1 1 0-404.224 202.112 202.112 0 0 1 0 404.224zM572.16 715.008a225.28 225.28 0 0 1 81.024-106.624 219.2 219.2 0 0 1 167.552-35.968 423.232 423.232 0 0 0-162.56-117.632c-37.888 35.2-86.336 56.96-137.792 61.824h-0.64a232.192 232.192 0 0 1-4.608 0.384l-0.96 0.064a200.768 200.768 0 0 1-4.288 0.256l-1.152 0.064-4.288 0.128h-1.088a234.56 234.56 0 0 1-10.624 0h-1.088l-4.288-0.128h-1.152a201.728 201.728 0 0 1-4.288-0.32h-0.96a238.528 238.528 0 0 1-4.608-0.448h-0.64a234.688 234.688 0 0 1-137.792-61.824c-104.064 42.432-184.128 162.688-240.32 360.704a64 64 0 0 0 61.44 81.408l197.696 0.64v0.768l141.312-0.384 91.072 0.256c-31.36-54.912-38.848-123.008-16.96-183.168zM779.328 617.6a170.688 170.688 0 1 0 0 341.376 170.688 170.688 0 0 0 0-341.376z m113.6 133.568l-12.48 13.632-86.656 95.104c-9.152 10.112-24.512 8.256-33.92 0l-8.96-7.808-62.08-54.464c-10.112-8.832-8.32-24.896 0-33.92 9.152-10.048 24.512-8.32 33.92 0l8.96 7.808 43.264 37.888 84.032-92.16c8.96-9.92 24.704-8.512 33.92 0 9.856 8.96 8.448 24.64 0 33.92z" /></svg>