<?xml version="1.0" standalone="no"?><!DOCTYPE svg PUBLIC "-//W3C//DTD SVG 1.1//EN" "http://www.w3.org/Graphics/SVG/1.1/DTD/svg11.dtd"><svg class="icon" width="200px" height="200.00px" viewBox="0 0 1024 1024" version="1.1" xmlns="http://www.w3.org/2000/svg"><path fill="currentColor" d="M182.7 83.5h658.4c5.2 0.6 10.5 0.6 15.7 1.4 26.2 3.7 51 17 68.5 36.8 10.7 11.9 18.7 26.1 23.5 41.4 3 9.3 4.3 19 5.3 28.6V720c-0.8 8.5-1.8 16.9-4.1 25.1-4 14.7-11.1 28.7-20.7 40.6-17.4 22-43.2 37.1-71 41.3-10.9 1.9-21.9 1.3-32.8 1.3H665.7l140.7 67.8c8.9 4.1 14.4 14.4 12.9 24.1-1.2 10.1-9.7 18.8-19.8 20-5.8 0.9-11.5-0.8-16.6-3.6-74.4-35.8-148.8-71.6-223.1-107.5-1.4-0.7-3-0.8-4.6-0.8H468c-1.5 0-3 0.3-4.4 0.9-75.2 36.2-150.4 72.4-225.6 108.7-9.1 4.7-21.1 2.5-27.9-5.3-7.9-8.4-7.9-22.8 0-31.2 3.6-4.3 9-6.2 13.8-8.6L358 828.3c-58.6 0.1-117.2 0-175.8 0-26.7-0.1-53.2-10.1-73.3-27.6-20.8-17.8-34.7-43.4-38.2-70.6-1.4-9.7-0.9-19.6-1-29.4V195.6c0.3-28.9 12.1-57.6 32.6-78.1 17.4-18 41.1-29.7 65.9-32.9 4.9-0.6 9.8-0.5 14.5-1.1m516.4 165.4l-99.7 99.7c-8.4 8.4-8.4 23.4-0.2 31.9 6.6 7.4 18.1 9.5 27.1 5.3 4.7-2.1 8.1-6.2 11.8-9.8 19.1-19 38.1-38.1 57.2-57.2v251.6c0.9 22.3-9.6 44.7-27.7 57.9-12.1 9.1-27.2 14-42.3 13.5-12.6-0.1-25-4-35.6-10.8-9.8-6.2-24.1-3.5-30.8 6.1-7.7 9.8-5.3 25.7 5 32.8 14.7 9.7 31.8 15.8 49.3 17.9 28.6 3.4 58.3-4.2 81.5-21.3 22.7-16.5 39.1-41.6 44.7-69.1 3.6-16.2 2.2-32.9 2.5-49.3V325.9l57.6 57.6c2.6 2.7 5.7 5.1 9.2 6.4 9.3 3.7 20.7 0.8 26.8-7.2 7.2-8.7 6.6-22.6-1.3-30.6l-98-98c-3.2-3.1-6.1-6.7-10.2-8.7-8.6-4.7-19.9-3.3-26.9 3.5m-464.6 19c-11.8 0.8-21.6 11.9-20.9 23.7-0.2 12 10.4 22.6 22.3 22.8 62.1 0.1 124.3 0 186.4 0.1 6.1 0.1 12.2-2.1 16.6-6.3 7.4-6.7 9.6-18.3 5.2-27.2-3.6-7.9-12.1-13.3-20.8-13.2-63 0.1-125.9 0-188.8 0.1m0.9 182.2c-7.6 0.4-14.9 4.8-18.7 11.4-4.4 7.5-4.3 17.5 0.6 24.7 4.6 7.3 13.4 11.2 21.9 10.5H424c9.2-0.2 17.7-6.6 20.8-15.2 3.1-8.4 1-18.5-5.5-24.7-4.4-4.6-10.8-6.9-17-6.8-62.3 0.1-124.6-0.1-186.9 0.1m-5.1 166.7c-9.5 2.7-16.8 11.9-16.7 21.9-0.5 9.1 5.2 18 13.4 21.7 3.5 1.7 7.5 2.2 11.4 2.2h184c5.7 0 11.4-1.8 15.8-5.6 6.3-5.3 9.4-14.1 7.8-22.2-1.8-10.3-11.3-18.7-21.8-18.8H241.1c-3.7 0-7.4-0.3-10.8 0.8z" /></svg>