<?xml version="1.0" standalone="no"?><!DOCTYPE svg PUBLIC "-//W3C//DTD SVG 1.1//EN" "http://www.w3.org/Graphics/SVG/1.1/DTD/svg11.dtd"><svg class="icon" width="200px" height="200.00px" viewBox="0 0 1024 1024" version="1.1" xmlns="http://www.w3.org/2000/svg"><path fill="currentColor" d="M827.54370333 681.90814777H196.45629667a97.09036999 97.09036999 0 0 1-97.09037112-97.09036999v-388.36148111a97.09036999 97.09036999 0 0 1 97.09037112-97.09037112h631.08740666a97.09036999 97.09036999 0 0 1 97.09037112 97.09037112v388.36148111a97.09036999 97.09036999 0 0 1-97.09037112 97.09036999z m-121.36296221-339.81629554a48.54518557 48.54518557 0 0 0-48.54518557 48.54518443v97.09037113a48.54518557 48.54518557 0 0 0 48.54518557 48.54518442 48.54518557 48.54518557 0 0 0 48.54518443-48.54518442v-97.09037113a48.54518557 48.54518557 0 0 0-48.54518443-48.54518443z m-194.18074112 48.54518443a48.54518557 48.54518557 0 0 0-48.54518557 48.54518556v48.54518557a48.54518557 48.54518557 0 0 0 48.54518557 48.54518442 48.54518557 48.54518557 0 0 0 48.54518557-48.54518442v-48.54518557a48.54518557 48.54518557 0 0 0-48.54518557-48.54518556z m-194.18074112-121.36296221a48.54518557 48.54518557 0 0 0-48.54518443 48.54518443v169.90814891a48.54518557 48.54518557 0 0 0 48.54518443 48.54518442 48.54518557 48.54518557 0 0 0 48.54518557-48.54518442v-169.90814891a48.54518557 48.54518557 0 0 0-48.54518557-48.54518443z"  /><path fill="currentColor" d="M123.6385189 778.9985189m60.6814811 0l655.36 0q60.6814811 0 60.6814811 60.6814811l0 0q0 60.6814811-60.6814811 60.6814811l-655.36 0q-60.6814811 0-60.6814811-60.6814811l0 0q0-60.6814811 60.6814811-60.6814811Z"  /></svg>