<?xml version="1.0" standalone="no"?><!DOCTYPE svg PUBLIC "-//W3C//DTD SVG 1.1//EN" "http://www.w3.org/Graphics/SVG/1.1/DTD/svg11.dtd"><svg class="icon" width="200px" height="200.00px" viewBox="0 0 1024 1024" version="1.1" xmlns="http://www.w3.org/2000/svg"><path fill="currentColor" d="M159.96875 135.96875c19.875-23.71875 50.34375-38.15625 81.28125-38.4375h522.28125c13.5-0.28125 27 1.96875 39.65625 6.5625 25.03125 9 46.40625 27.65625 58.78125 51.1875 8.53125 15.84375 12.75 33.84375 12.75 51.75v372.1875c-17.4375-9.1875-34.125-19.6875-52.21875-27.46875-25.59375-10.875-53.34375-16.78125-81.09375-17.25-31.875-0.5625-63.84375 5.90625-92.90625 18.9375-29.4375 13.21875-55.875 33.09375-76.78125 57.65625-19.3125 22.59375-33.9375 49.21875-42.5625 77.71875-15.28125 49.6875-11.90625 104.8125 9.46875 152.25 7.59375 16.78125 17.15625 32.625 28.6875 47.0625 10.03125 12.375 20.15625 24.65625 30.1875 37.125h-352.5c-11.53125 0.1875-23.15625-1.40625-34.21875-4.78125-23.71875-7.21875-44.71875-22.96875-58.40625-43.59375-11.25-16.6875-17.625-36.65625-18.1875-56.8125v-612.1875c-0.5625-26.15625 8.90625-52.125 25.78125-71.90625m165.28125 107.53125c-9.65625 2.0625-17.15625 11.34375-16.875 21.28125-0.375 11.15625 9.09375 21.46875 20.25 21.84375h351.46875c5.8125-0.09375 11.4375-3.09375 15.28125-7.40625 6-6.75 7.03125-17.34375 2.53125-25.125-3.75-6.84375-11.4375-11.25-19.21875-11.15625H331.0625c-1.96875 0-3.9375 0.1875-5.8125 0.5625m-0.84375 151.40625c-4.59375 1.21875-8.71875 4.03125-11.53125 7.78125-6 7.59375-5.90625 19.3125 0.1875 26.90625 4.21875 5.4375 11.15625 8.53125 18 8.34375h347.625c5.90625 0 11.71875-2.34375 15.84375-6.5625 6.75-6.65625 8.15625-17.8125 3.5625-25.96875-3.46875-6.46875-10.5-10.96875-17.90625-11.15625H328.71875c-1.5 0-3 0.1875-4.3125 0.65625m2.15625 150.46875c-9.46875 0.75-17.53125 8.90625-18.09375 18.375-0.09375 4.3125-0.375 8.8125 1.40625 12.84375 3 7.5 10.78125 12.65625 18.84375 12.5625h134.34375c9 0 17.53125-6.84375 19.3125-15.75 2.34375-10.59375-3.75-22.125-13.6875-26.15625-5.15625-2.4375-10.96875-1.78125-16.5-1.78125-41.90625-0.1875-83.8125-0.1875-125.625-0.09375m-2.15625 151.78125c-5.8125 1.59375-10.875 5.71875-13.59375 11.0625-3.375 6.375-3.1875 14.53125 0.375 20.8125 3.65625 6.5625 10.78125 10.96875 18.28125 11.0625h88.3125c5.8125 0 11.625-2.53125 15.5625-6.84375 6.5625-6.65625 7.875-17.71875 3.1875-25.78125-3.65625-6.65625-11.15625-11.15625-18.75-11.0625h-82.6875c-3.65625 0-7.3125-0.28125-10.6875 0.75z"  /><path fill="currentColor" d="M732.59375 556.25c44.53125-1.3125 89.34375 13.21875 124.59375 40.5 24 18.375 43.59375 42.375 56.8125 69.5625 15.09375 30.75 21.65625 65.53125 19.3125 99.65625-1.96875 29.625-10.875 58.78125-25.875 84.46875-15.09375 26.0625-36.28125 48.5625-61.3125 65.15625-23.25 15.46875-49.96875 25.875-77.625 30.1875-36.5625 5.8125-74.71875 1.125-108.65625-13.6875-26.0625-11.25-49.59375-28.3125-68.4375-49.5-22.6875-25.40625-38.625-56.8125-45.5625-90.1875-6.65625-32.0625-5.34375-65.8125 4.21875-97.125 7.59375-25.21875 20.4375-48.84375 37.3125-69.09375 18.65625-22.21875 42.1875-40.3125 68.53125-52.40625 24-10.78125 50.34375-16.78125 76.6875-17.53125m82.5 124.6875c-29.34375 32.34375-58.6875 64.59375-87.9375 97.03125-22.96875-20.625-45.75-41.4375-68.71875-62.15625-3.9375-3.375-9.1875-5.34375-14.34375-5.15625-7.96875-0.09375-15.75 4.78125-19.21875 11.90625-4.40625 8.4375-2.4375 19.6875 4.78125 25.96875 26.71875 24.1875 53.4375 48.46875 80.15625 72.65625 2.90625 2.53125 5.625 5.53125 9.28125 7.21875 6.28125 3 14.15625 2.8125 20.15625-0.75 3.9375-2.0625 6.65625-5.71875 9.65625-9l95.0625-104.90625c2.34375-2.625 5.0625-5.15625 6.46875-8.53125 4.03125-8.15625 2.25-18.75-4.3125-24.9375-7.96875-8.4375-23.15625-8.15625-31.03125 0.65625z"  /></svg>